<svg id="Layer_1" data-name="Layer 1" xmlns="http://www.w3.org/2000/svg" viewBox="0 0 692 33"><defs><style>.cls-1{fill:#7376ff;}</style></defs><path class="cls-1" d="M692,32.84c-14.37,0-21.52-7.43-28.42-14.61C657.11,11.51,651,5.16,638.76,5.16s-18.35,6.35-24.82,13.07c-6.9,7.18-14,14.61-28.42,14.61S564,25.41,557.11,18.23c-6.47-6.72-12.57-13.07-24.82-13.07s-18.35,6.35-24.81,13.07c-6.91,7.18-14.05,14.61-28.42,14.61s-21.51-7.43-28.42-14.61c-6.46-6.72-12.56-13.07-24.81-13.07S407.48,11.51,401,18.23c-6.91,7.18-14,14.61-28.42,14.61s-21.51-7.43-28.41-14.61c-6.47-6.72-12.58-13.07-24.82-13.07S301,11.51,294.56,18.23c-6.91,7.18-14.05,14.61-28.42,14.61s-21.51-7.43-28.42-14.61c-6.46-6.72-12.57-13.07-24.81-13.07s-18.35,6.35-24.81,13.07c-6.91,7.18-14,14.61-28.42,14.61s-21.51-7.43-28.42-14.61c-6.46-6.72-12.57-13.07-24.81-13.07S88.1,11.51,81.64,18.23c-6.9,7.18-14,14.61-28.41,14.61S31.72,25.41,24.81,18.23C18.35,11.51,12.24,5.16,0,5.16v-5c14.37,0,21.51,7.43,28.42,14.61C34.88,21.49,41,27.84,53.23,27.84S71.57,21.49,78,14.77C84.94,7.59,92.08.16,106.45.16S128,7.59,134.87,14.77c6.46,6.72,12.57,13.07,24.81,13.07S178,21.49,184.49,14.77C191.4,7.59,198.54.16,212.91.16s21.51,7.43,28.42,14.61c6.46,6.72,12.57,13.07,24.81,13.07S284.49,21.49,291,14.77C297.86,7.59,305,.16,319.37.16s21.51,7.43,28.42,14.61c6.46,6.72,12.57,13.07,24.81,13.07S391,21.49,397.42,14.77c6.9-7.18,14-14.61,28.41-14.61s21.51,7.43,28.42,14.61c6.46,6.72,12.57,13.07,24.81,13.07s18.35-6.35,24.82-13.07c6.9-7.18,14-14.61,28.41-14.61s21.52,7.43,28.42,14.61c6.47,6.72,12.57,13.07,24.81,13.07s18.36-6.35,24.82-13.07c6.91-7.18,14-14.61,28.42-14.61s21.52,7.43,28.42,14.61c6.47,6.72,12.57,13.07,24.82,13.07Z"/></svg>